<svg xmlns="http://www.w3.org/2000/svg" version="1.1" xmlns:xlink="http://www.w3.org/1999/xlink" xmlns:svgjs="http://svgjs.com/svgjs" width="100" height="100" x="0" y="0" viewBox="0 0 300 480" style="enable-background:new 0 0 100 100" xml:space="preserve" class=""><g><path d="M264 0H40C17.918.027.027 17.918 0 40v400c.027 22.082 17.918 39.973 40 40h224c22.082-.027 39.973-17.918 40-40V40c-.027-22.082-17.918-39.973-40-40zM96 16h112v16a8 8 0 0 1-8 8h-96a8 8 0 0 1-8-8zm192 424c0 13.254-10.746 24-24 24H40c-13.254 0-24-10.746-24-24V40c0-13.254 10.746-24 24-24h40v16c0 13.254 10.746 24 24 24h96c13.254 0 24-10.746 24-24V16h40c13.254 0 24 10.746 24 24zm0 0" fill="#007bff" data-original="#000000" class=""></path><path d="m265.602 176.16-21.922-4.398a95.789 95.789 0 0 0-6.903-16.633l12.391-18.617a7.998 7.998 0 0 0-1.008-10.086l-22.558-22.563a8.003 8.003 0 0 0-10.09-1.008l-18.617 12.391a95.877 95.877 0 0 0-16.63-6.902l-4.402-21.918A7.993 7.993 0 0 0 168 80h-32a8.004 8.004 0 0 0-7.84 6.398l-4.398 21.922a95.789 95.789 0 0 0-16.633 6.903l-18.617-12.391a7.998 7.998 0 0 0-10.086 1.008l-22.563 22.558a8.003 8.003 0 0 0-1.008 10.09l12.391 18.617a95.877 95.877 0 0 0-6.902 16.63l-21.918 4.402A7.993 7.993 0 0 0 32 184v32c0 3.8 2.676 7.078 6.398 7.84l21.922 4.398a95.789 95.789 0 0 0 6.903 16.633l-12.391 18.617a7.998 7.998 0 0 0 1.008 10.086l22.558 22.563a8.003 8.003 0 0 0 10.09 1.008l18.617-12.391c2.278 1.207 4.704 2.207 7.102 3.238A15.774 15.774 0 0 0 112 296v136c0 8.836 7.164 16 16 16h48c8.836 0 16-7.164 16-16V296a15.77 15.77 0 0 0-2.23-8c2.398-1.031 4.796-2.031 7.101-3.238l18.617 12.39a7.998 7.998 0 0 0 10.086-1.007l22.563-22.56a8.004 8.004 0 0 0 1.008-10.089l-12.391-18.617a95.789 95.789 0 0 0 6.902-16.633l21.918-4.398A7.998 7.998 0 0 0 272 216v-32c0-3.8-2.676-7.078-6.398-7.84zM160 432v-96h-16v96h-16V296h48v136zm-24-240h8v47.2a39.865 39.865 0 0 1-16-71.016V184a8 8 0 0 0 8 8zm32 0a8 8 0 0 0 8-8v-15.824a39.864 39.864 0 0 1 15.04 40.703 39.866 39.866 0 0 1-31.04 30.32V192zm-8-16h-16v-7.016L150.246 144h3.508L160 168.984zm96 33.45-20.297 4.062a8 8 0 0 0-6.176 5.87 79.335 79.335 0 0 1-9 21.657 8.006 8.006 0 0 0 .168 8.594l11.496 17.262-13.296 13.296-17.293-11.496a8.007 8.007 0 0 0-8.594-.168 79.385 79.385 0 0 1-21.656 9 7.948 7.948 0 0 0-4 2.473H160v-24.64c25.39-3.575 45.074-23.997 47.715-49.5s-12.445-49.528-36.563-58.227l-3.39-13.602A7.999 7.999 0 0 0 160 128h-16a8.005 8.005 0 0 0-7.762 6.055l-3.39 13.601c-24.094 8.715-39.153 32.723-36.516 58.211 2.64 25.485 22.3 45.899 47.668 49.492V280h-7.398a7.948 7.948 0 0 0-4-2.473 79.335 79.335 0 0 1-21.657-9 8.006 8.006 0 0 0-8.593.168L85.09 280.191l-13.297-13.296 11.512-17.293a8.007 8.007 0 0 0 .168-8.594 79.385 79.385 0 0 1-9-21.656 8 8 0 0 0-6.176-5.872L48 209.45v-18.9l20.297-4.062a8 8 0 0 0 6.176-5.87 79.335 79.335 0 0 1 9-21.657 8.006 8.006 0 0 0-.168-8.594l-11.496-17.262 13.296-13.296 17.293 11.496a8.007 8.007 0 0 0 8.594.168 79.385 79.385 0 0 1 21.656-9 8 8 0 0 0 5.872-6.176L142.55 96h18.9l4.062 20.297a8 8 0 0 0 5.87 6.176 79.335 79.335 0 0 1 21.657 9 8.006 8.006 0 0 0 8.594-.168l17.262-11.496 13.296 13.296-11.496 17.293a8.007 8.007 0 0 0-.168 8.594 79.385 79.385 0 0 1 9 21.656 8 8 0 0 0 6.176 5.872L256 190.55zm0 0" fill="#007bff" data-original="#000000" class=""></path></g></svg>