<svg xmlns="http://www.w3.org/2000/svg" version="1.1" xmlns:xlink="http://www.w3.org/1999/xlink" xmlns:svgjs="http://svgjs.com/svgjs" width="100" height="100" x="0" y="0" viewBox="0 0 512 511" style="enable-background:new 0 0 512 512" xml:space="preserve" class=""><g><path d="M257.387 81.129c-24.328 0-45.114 10.469-54.239 27.312a7.494 7.494 0 0 0 3.02 10.164 7.494 7.494 0 0 0 10.164-3.02c6.406-11.82 22.52-19.46 41.055-19.46 18.539 0 34.652 7.64 41.058 19.46a7.497 7.497 0 1 0 13.184-7.144c-9.125-16.843-29.91-27.312-54.242-27.312zm0 0" fill="#007bff" data-original="#000000" class=""></path><path d="M333.906 90.473a7.501 7.501 0 0 0 10.164 3.02 7.498 7.498 0 0 0 3.02-10.165c-14.95-27.59-49.32-44.723-89.703-44.723-40.38 0-74.75 17.137-89.7 44.723a7.498 7.498 0 0 0 13.184 7.145c12.324-22.743 41.645-36.871 76.516-36.871 34.875 0 64.195 14.125 76.52 36.87zm0 0" fill="#007bff" data-original="#000000" class=""></path><path d="M133.117 73.816a7.497 7.497 0 0 0 10.168-3.015c18.5-34.114 62.223-55.305 114.106-55.305 51.879 0 95.601 21.191 114.105 55.305a7.492 7.492 0 0 0 10.164 3.015 7.493 7.493 0 0 0 3.016-10.164C363.55 24.7 314.777.5 257.39.5S151.23 24.7 130.1 63.652a7.5 7.5 0 0 0 3.016 10.164zM401.383 229.21c10.746 0 19.488-8.753 19.488-19.515 0-10.761-8.742-19.515-19.488-19.515-10.758 0-19.516 8.754-19.516 19.515 0 10.762 8.758 19.516 19.516 19.516zm0-24.034c2.48 0 4.492 2.027 4.492 4.52 0 2.452-2.055 4.523-4.492 4.523a4.528 4.528 0 0 1-4.52-4.524 4.527 4.527 0 0 1 4.52-4.52zM401.383 251.86c-10.758 0-19.516 8.757-19.516 19.519 0 10.762 8.758 19.516 19.516 19.516 10.746 0 19.488-8.754 19.488-19.516 0-10.762-8.742-19.52-19.488-19.52zm0 24.038a4.525 4.525 0 0 1-4.52-4.52 4.528 4.528 0 0 1 4.52-4.523c2.437 0 4.492 2.07 4.492 4.524.004 2.492-2.012 4.52-4.492 4.52zM390.031 240.535c0-10.758-8.754-19.515-19.515-19.515S351 229.773 351 240.535s8.754 19.52 19.516 19.52 19.515-8.758 19.515-19.52zm-19.515 4.524a4.525 4.525 0 0 1-4.52-4.524c0-2.492 2.027-4.52 4.52-4.52s4.523 2.028 4.523 4.52a4.529 4.529 0 0 1-4.523 4.524zM432.227 221.02c-10.762 0-19.52 8.753-19.52 19.515s8.758 19.52 19.52 19.52c10.761 0 19.515-8.758 19.515-19.52 0-10.758-8.754-19.515-19.515-19.515zm0 24.039a4.529 4.529 0 0 1-4.524-4.524 4.528 4.528 0 0 1 4.524-4.52 4.525 4.525 0 0 1 4.52 4.52 4.525 4.525 0 0 1-4.52 4.524zM186.07 269.238c-19.59 0-35.53 15.938-35.53 35.532s15.94 35.53 35.53 35.53c19.594 0 35.532-15.94 35.532-35.53 0-19.594-15.938-35.532-35.532-35.532zm0 56.07c-11.324 0-20.535-9.214-20.535-20.538s9.211-20.536 20.535-20.536c11.325 0 20.54 9.211 20.54 20.536s-9.215 20.539-20.54 20.539zm0 0" fill="#007bff" data-original="#000000" class=""></path><path d="M508.563 355.617 472.449 206.54c-5.195-21.441-15.512-37.785-30.664-48.578a69.983 69.983 0 0 0-9.914-5.887v-3.07c0-15.606-12.684-28.3-28.273-28.3h-16.809c-15.61 0-28.305 12.694-28.305 28.3v4.332c-6.05 3.297-10.828 7.316-13.695 11.758h-72.32a7.499 7.499 0 1 0 0 14.996h69.574v15.32c0 8.465-6.875 15.352-15.32 15.352H185.277c-8.46 0-15.347-6.887-15.347-15.352v-15.32h67.902a7.499 7.499 0 0 0 0-14.996h-70.648c-2.86-4.434-7.625-8.45-13.668-11.746v-4.344c0-15.606-12.696-28.305-28.305-28.305h-16.777c-15.61 0-28.305 12.7-28.305 28.305v3.066a70.633 70.633 0 0 0-9.89 5.875c-15.165 10.79-25.489 27.14-30.688 48.594L3.437 355.613c-5.316 21.934-4.46 40.489 2.54 55.153 6.261 13.109 17.12 22.363 31.406 26.754 30.613 9.414 66.457-6.297 76.707-33.622l17.347-46.207c2.231-5.945 4-6.699 4.02-6.707.203-.046 1.563.13 4.14 2.012 24.294 22.059 64.079 21.106 90.278-1.754h52.246c12.121 10.582 27.524 16.848 43.703 17.719 17.664.95 34.18-4.719 46.574-15.965 2.907-2.125 4.122-2.023 4.133-2.012.016.008 1.781.758 4.028 6.704l17.32 46.21c8.234 21.922 32.933 36.368 58.183 36.364 6.235 0 12.504-.88 18.567-2.746 14.281-4.395 25.137-13.649 31.394-26.762 7-14.66 7.856-33.211 2.54-55.137zM386.784 135.695h16.809c6.511 0 11.933 4.723 13.058 10.93-6.222-1.512-12.757-2.309-19.511-2.332h-.309c-8.121 0-16.047 1.117-23.246 3.086.809-6.57 6.414-11.684 13.2-11.684zm-278.351 0h16.777c6.789 0 12.394 5.114 13.2 11.688-7.196-1.969-15.126-3.09-23.247-3.09h-.258c-6.77.02-13.32.816-19.558 2.332 1.129-6.207 6.558-10.93 13.086-10.93zm361.785 287.489c-20.762 6.39-50.11-2.754-58.297-24.555l-17.328-46.223c-3.367-8.914-7.91-14.086-13.887-15.82-5.477-1.594-11.394-.031-17.59 4.629a8.247 8.247 0 0 0-.566.472c-19.293 17.743-51.754 16.231-72.356-3.37a7.494 7.494 0 0 0-5.168-2.067h-58.054a7.494 7.494 0 0 0-5.168 2.066c-20.617 19.614-53.075 21.13-72.352 3.375a7.427 7.427 0 0 0-.574-.476c-6.203-4.668-12.129-6.223-17.617-4.625-5.985 1.742-10.52 6.922-13.864 15.832l-17.347 46.207c-8.176 21.8-37.504 30.945-58.262 24.562-23.246-7.152-31.914-30.492-23.781-64.043L54.12 210.074c6.524-26.918 21.008-39.867 35.426-45.89a7.33 7.33 0 0 0 1.719-.692c8.601-3.273 17.066-4.183 23.683-4.203 11.196-.016 20.852 2.387 27.903 5.465.12.055.242.113.37.164 6.41 2.855 10.587 6.258 11.708 8.855v21.637c0 16.73 13.613 30.344 30.343 30.344H326.72c16.715 0 30.316-13.613 30.316-30.344v-21.633c1.11-2.566 5.195-5.922 11.461-8.757a7.555 7.555 0 0 0 1.059-.465c6.965-2.973 16.367-5.266 27.258-5.266h.269c6.61.023 15.066.938 23.656 4.211.528.293 1.098.52 1.696.68 14.421 6.02 28.914 18.968 35.437 45.89l36.113 149.078c8.137 33.543-.527 56.883-23.765 64.036zm0 0" fill="#007bff" data-original="#000000" class=""></path><path d="M331.797 269.238c-19.594 0-35.531 15.938-35.531 35.532s15.937 35.53 35.53 35.53c19.59 0 35.532-15.94 35.532-35.53 0-19.594-15.941-35.532-35.531-35.532zm0 56.07c-11.324 0-20.535-9.214-20.535-20.538s9.21-20.536 20.535-20.536 20.535 9.211 20.535 20.536-9.21 20.539-20.535 20.539zM134.254 220.992h-2.281v-2.281c0-12.684-10.32-23.004-23.004-23.004s-23.004 10.32-23.004 23.004v2.281h-2.281c-12.684 0-23 10.32-23 23.004S71 267 83.684 267h2.28v2.281c0 12.684 10.321 23.004 23.005 23.004s23.004-10.32 23.004-23.004V267h2.28c12.685 0 23.005-10.32 23.005-23.004s-10.32-23.004-23.004-23.004zm0 31.012h-9.777c-4.141 0-7.5 3.355-7.5 7.496v9.781c0 4.414-3.59 8.008-8.008 8.008-4.414 0-8.004-3.594-8.004-8.008V259.5c0-4.14-3.36-7.496-7.5-7.496h-9.778c-4.414 0-8.007-3.594-8.007-8.008s3.593-8.008 8.007-8.008h9.778c4.14 0 7.5-3.36 7.5-7.5v-9.777c0-4.418 3.59-8.008 8.004-8.008 4.418 0 8.008 3.59 8.008 8.008v9.777c0 4.14 3.359 7.5 7.5 7.5h9.777c4.414 0 8.008 3.594 8.008 8.008s-3.59 8.008-8.008 8.008zM236.328 248.742h-10.887a7.499 7.499 0 0 0 0 14.996h10.887a7.499 7.499 0 0 0 0-14.996zM286.559 248.742h-10.914a7.499 7.499 0 1 0 0 14.996h10.914a7.499 7.499 0 0 0 0-14.996zM264.332 288.031h-10.883a7.499 7.499 0 1 0 0 14.996h10.883c4.145 0 7.5-3.359 7.5-7.5s-3.355-7.496-7.5-7.496zm0 0" fill="#007bff" data-original="#000000" class=""></path></g></svg>