<svg xmlns="http://www.w3.org/2000/svg" version="1.1" xmlns:xlink="http://www.w3.org/1999/xlink" xmlns:svgjs="http://svgjs.com/svgjs" width="100" height="100" x="0" y="0" viewBox="4 4 52 50" style="enable-background:new 0 0 512 512" xml:space="preserve" class=""><g><path d="M51.79 15.63H24.17V11.3c0-1.58-1.29-2.87-2.87-2.87H7.87C6.29 8.43 5 9.72 5 11.3v37.4c0 1.58 1.29 2.87 2.87 2.87H21.3c.2 0 .4-.02.6-.06.1.03.2.06.32.06h24.45c.55 0 1-.45 1-1s-.45-1-1-1H24.02c.09-.28.15-.57.15-.87v-1.01h27.62c1.77 0 3.21-1.44 3.21-3.21V18.84c0-1.77-1.44-3.21-3.21-3.21zM7 48.7V11.3c0-.48.39-.87.87-.87H21.3c.48 0 .87.39.87.87v37.4c0 .48-.39.87-.87.87H7.87A.87.87 0 0 1 7 48.7zm46-4.22c0 .67-.54 1.21-1.21 1.21H24.17V17.63h27.62c.67 0 1.21.54 1.21 1.21z" fill="#007bff" data-original="#000000" class=""></path><path d="M19.11 16.1h-9.05c-.55 0-1 .45-1 1s.45 1 1 1h9.05c.55 0 1-.45 1-1s-.45-1-1-1zM19.11 22.16h-9.05c-.55 0-1 .45-1 1s.45 1 1 1h9.05c.55 0 1-.45 1-1s-.45-1-1-1zM13.21 27.97c0-.55-.45-1-1-1h-2.15c-.55 0-1 .45-1 1s.45 1 1 1h2.15c.55 0 1-.45 1-1zM14.58 39.14c-1.94 0-3.52 1.58-3.52 3.52s1.58 3.52 3.52 3.52 3.52-1.58 3.52-3.52-1.58-3.52-3.52-3.52zm0 5.04a1.52 1.52 0 1 1-.001-3.039 1.52 1.52 0 0 1 .001 3.039z" fill="#007bff" data-original="#000000" class=""></path></g></svg>